<svg x="0" y="0" width="1000" height="500" viewBox="0 0 1400 700" xmlns="http://www.w3.org/2000/svg" xmlns:xlink="http://www.w3.org/1999/xlink" xmlns:fi="http://pattern.flaticon.com/"><rect x="0px" y="0px" width="100%" height="100%" opacity="1" fill="#eeffed"/><defs><g transform="matrix(0.124447762966156 0 0 0.124447762966156 318 141)" id="L1_0"><path d="M475.266,126.603c-0.001,0-0.001,0-0.002,0l-0.016-0.016l-31.12-4.44c-4.374-0.623-7.415-4.674-6.792-9.048    c0.299-2.102,1.422-3.998,3.12-5.272l25.152-18.864c3.535-2.651,4.251-7.665,1.6-11.2l-28.8-38.4    c-2.651-3.535-7.665-4.251-11.2-1.6l-25.144,18.864c-3.52,2.671-8.538,1.983-11.209-1.537c-1.297-1.709-1.853-3.868-1.543-5.991    l4.448-31.12c0.627-4.374-2.41-8.427-6.783-9.055c-0.003,0-0.006-0.001-0.009-0.001L339.48,2.139    c-4.373-0.628-8.428,2.408-9.056,6.782c0,0.001,0,0.001,0,0.002l-4.448,31.12c-0.623,4.374-4.674,7.415-9.048,6.792    c-2.102-0.299-3.998-1.422-5.272-3.12L292.8,18.563c-2.651-3.535-7.665-4.251-11.2-1.6l-24.04,18.04    c-10.876-1.156-21.844-1.156-32.72,0C153.614,43.144,97.759,99.946,90.816,171.299c-0.216,2.264-0.296,4.512-0.408,6.76h-2.4    c-3.796,0.007-7.065,2.681-7.824,6.4l-5.528,26.288l-22.144-15.272c-3.178-2.193-7.47-1.802-10.2,0.928l-24,24    c-2.726,2.729-3.116,7.015-0.928,10.192l15.2,22.104l-26.296,5.528c-3.678,0.806-6.296,4.067-6.288,7.832v32    c-0.002,3.784,2.649,7.052,6.352,7.832l26.296,5.528l-15.2,22.104c-2.188,3.177-1.798,7.463,0.928,10.192l24,24    c2.73,2.73,7.022,3.121,10.2,0.928l22.104-15.24l5.528,26.296c0.759,3.719,4.028,6.393,7.824,6.4h32    c3.784,0.002,7.052-2.649,7.832-6.352l5.528-26.296l22.104,15.2c3.177,2.188,7.463,1.798,10.192-0.928l12.424-12.464v22.8    c0.036,11.381,6.133,21.88,16,27.552v44.448c0,17.673,14.327,32,32,32h32c17.673,0,32-14.327,32-32v-44.448    c9.867-5.672,15.964-16.171,16-27.552v-31.664c0.217-13.323,7.187-25.623,18.504-32.656c6.639-4.307,12.935-9.122,18.832-14.4    l-10.672-11.92c-5.275,4.728-10.911,9.037-16.856,12.888c-15.885,9.97-25.609,27.334-25.808,46.088v31.664c0,8.837-7.163,16-16,16    h-64c-8.837,0-16-7.163-16-16v-32.328c-0.185-18.399-9.756-35.428-25.376-45.152c-63.407-39.842-82.511-123.541-42.669-186.948    c24.72-39.341,67.862-63.286,114.325-63.452c-0.119,0.285-0.224,0.576-0.312,0.872c-0.297,2.1,0.253,4.233,1.528,5.928    l18.856,25.144c1.988,2.573,2.179,6.107,0.48,8.88c-1.636,2.79-4.799,4.312-8,3.848l-31.12-4.448    c-4.374-0.627-8.427,2.41-9.055,6.783c0,0.003-0.001,0.006-0.001,0.009l-6.792,47.512c-0.627,4.373,2.41,8.427,6.783,9.055    c0.003,0,0.006,0.001,0.009,0.001l31.12,4.448c4.374,0.623,7.415,4.674,6.792,9.048c-0.299,2.102-1.422,3.998-3.12,5.272    l-25.144,18.856c-3.535,2.651-4.251,7.665-1.6,11.2l28.8,38.4c2.651,3.535,7.665,4.251,11.2,1.6l25.152-18.856    c3.538-2.646,8.552-1.923,11.198,1.616c1.266,1.693,1.811,3.819,1.514,5.912l-4.44,31.12c-0.628,4.373,2.408,8.428,6.782,9.056    c0.001,0,0.001,0,0.002,0l47.52,6.792c0.374,0.048,0.751,0.072,1.128,0.072c3.983,0.005,7.362-2.921,7.928-6.864l4.44-31.12    c0.623-4.374,4.674-7.415,9.048-6.792c2.102,0.299,3.998,1.422,5.272,3.12l18.864,25.144c2.651,3.535,7.665,4.251,11.2,1.6    l38.4-28.8c3.535-2.651,4.251-7.665,1.6-11.2l-18.856-25.144c-1.979-2.577-2.17-6.105-0.48-8.88c1.601-2.827,4.793-4.359,8-3.84    l31.12,4.44c4.373,0.628,8.428-2.409,9.056-6.782c0-0.001,0-0.001,0-0.002l6.784-47.52    C482.676,131.285,479.64,127.231,475.266,126.603z M210.112,410.059h64v16h-64V410.059z M210.112,442.059h64v8    c0,8.837-7.163,16-16,16h-32c-8.837,0-16-7.163-16-16V442.059z M146.424,304.099c4.368,3.572,8.932,6.898,13.672,9.96    c7.559,4.777,13.249,12.004,16.12,20.472l-17.16,17.128l-16.616-11.456c-7.276-5.014-17.239-3.18-22.254,4.096    c-1.202,1.745-2.046,3.711-2.482,5.784l-4.192,19.976H94.496l-4.192-19.944c-1.82-8.647-10.305-14.182-18.952-12.362    c-2.073,0.436-4.039,1.28-5.784,2.482l-16.624,11.424l-14.576-14.544l11.448-16.608c5.019-7.273,3.191-17.237-4.082-22.256    c-1.746-1.205-3.714-2.051-5.79-2.488L16,291.563v-19.008l19.944-4.2c8.644-1.833,14.166-10.326,12.333-18.971    c-0.435-2.051-1.268-3.996-2.453-5.725l-11.456-16.656l14.576-14.544l16.632,11.456c7.279,5.009,17.242,3.169,22.251-4.11    c1.2-1.743,2.042-3.707,2.477-5.778l1.4-6.656c1.282,9.218,3.405,18.298,6.344,27.128c-26.323,3.138-45.118,27.022-41.98,53.345    c3.138,26.323,27.022,45.118,53.345,41.98C125.259,327.934,139.13,318.293,146.424,304.099z M134,292.827    c-5.974,16.605-24.277,25.223-40.882,19.25c-16.605-5.974-25.223-24.277-19.25-40.882c4.57-12.703,16.631-21.164,30.131-21.136    c0.104,0,0.2,0,0.304,0C111.66,265.922,121.707,280.391,134,292.827z M460.512,172.971l-23.2-3.312    c-13.122-1.874-25.278,7.245-27.152,20.366c-0.9,6.301,0.74,12.702,4.56,17.794l14.056,18.744l-25.6,19.2l-14.064-18.736    c-7.952-10.605-22.995-12.756-33.599-4.804c-5.092,3.818-8.459,9.503-9.361,15.804l-3.24,23.232l-31.672-4.528l3.312-23.2    c1.879-13.121-7.235-25.281-20.356-27.159c-6.305-0.903-12.709,0.737-17.804,4.559l-18.744,14.056l-19.2-25.6l18.736-14.064    c10.605-7.952,12.756-22.995,4.804-33.599c-3.818-5.092-9.503-8.459-15.804-9.361l-23.2-3.312l4.528-31.672l23.2,3.312    c13.121,1.879,25.281-7.235,27.159-20.356c0.903-6.305-0.737-12.709-4.559-17.804l-14.104-18.76l25.6-19.2l14.064,18.744    c7.952,10.605,22.995,12.756,33.599,4.804c5.092-3.818,8.459-9.503,9.361-15.804l3.312-23.2l31.672,4.52l-3.312,23.2    c-1.874,13.122,7.244,25.278,20.366,27.152c6.301,0.9,12.702-0.74,17.794-4.56l18.744-14.056l19.2,25.6l-18.744,14.064    c-10.605,7.952-12.756,22.995-4.804,33.599c3.818,5.092,9.503,8.459,15.804,9.361l23.2,3.312L460.512,172.971z"/><path d="M344,76.171c-35.346,0-64,28.654-64,64c0,35.346,28.654,64,64,64c35.346,0,64-28.654,64-64    C407.96,104.841,379.33,76.21,344,76.171z M344,188.171c-26.51,0-48-21.49-48-48s21.49-48,48-48c26.51,0,48,21.49,48,48    C391.969,166.668,370.497,188.14,344,188.171z"/><rect x="234px" y="354px" width="16px" height="24px"/><path d="M207.12,275.491c-49.385-19.292-73.78-74.966-54.487-124.351c7.476-19.136,20.893-35.369,38.279-46.313l-8.552-13.536    c-52.336,32.971-68.035,102.126-35.064,154.462c12.769,20.269,31.701,35.91,54.016,44.626c19.752,7.568,32.795,26.528,32.8,47.68    h16C250.137,310.307,233.035,285.418,207.12,275.491z"/><rect x="394px" y="298px" width="56px" height="16px"/><rect x="402px" y="334px" width="16px" height="62px" transform="matrix(0.6401000022888184 -0.7682999968528748 0.7682999968528748 0.6401000022888184 -133.64370727539062 446.82391357421875)"/><rect x="346px" y="362px" width="16px" height="56px"/><rect x="9px" y="130px" width="65px" height="15px" transform="matrix(0.9700999855995178 -0.24250000715255737 0.24250000715255737 0.9700999855995178 -32.225101470947266 14.335100173950195)"/><rect x="46px" y="35px" width="15px" height="68px" transform="matrix(0.5812000036239624 -0.8137000203132629 0.8137000203132629 0.5812000036239624 -34.3557014465332 73.3687973022461)"/><rect x="97px" y="1px" width="16px" height="66px" transform="matrix(0.9688000082969666 -0.24770000576972961 0.24770000576972961 0.9688000082969666 -5.132999897003174 27.297100067138672)"/></g><g transform="matrix(0.1185617446899414 -0.04234347864985466 0.04234347864985466 0.1185617446899414 250.84405517578125 36.039005279541016)" id="L1_2"><path d="m296.417969 151.957031c-5.519531 0-9.996094 4.480469-9.996094 10 0 5.515625 4.476563 9.996094 9.996094 9.996094s9.996093-4.480469 9.996093-9.996094c0-5.519531-4.476562-10-9.996093-10zm0 0"/><path d="m235.792969 347.265625c3.902343-3.910156 3.902343-10.238281 0-14.148437-3.90625-3.898438-10.234375-3.898438-14.144531 0-3.898438 3.910156-3.898438 10.238281 0 14.148437 3.910156 3.898437 10.238281 3.898437 14.144531 0zm0 0"/><path d="m115.652344 509.042969c3.875 3.90625 10.183594 3.949219 14.109375.082031l48.46875-47.75c8.234375-8.234375 10.738281-20.425781 7.117187-31.023438l10.425782-10.054687c5.613281-5.421875 13.003906-8.410156 20.816406-8.410156h132.902344c23.578124 0 45.863281-9.054688 62.757812-25.496094.695312-.675781-5.277344 6.359375 90.667969-108.3125 14.230469-16.835937 12.101562-42.117187-4.75-56.363281-16.746094-14.113282-41.832031-12.085938-56.101563 4.460937l-58.992187 60.632813c-7.449219-9.167969-18.808594-14.882813-31.082031-14.882813h-111.480469c-15.863281-6.636719-32.695313-9.996093-50.0625-9.996093-48.125 0-90.167969 22.21875-112.734375 63.921874-9.503906-1.800781-19.527344 1.074219-26.738282 8.285157l-47.558593 47.699219c-3.882813 3.894531-3.890625 10.195312-.015625 14.097656zm74.792968-227.121094c15.3125 0 30.117188 3.082031 44.011719 9.160156 1.265625.554688 2.628907.839844 4.007813.839844h113.527344c10.839843 0 19.996093 8.839844 19.996093 19.992187 0 11.027344-8.96875 19.996094-19.996093 19.996094h-81.566407c-5.519531 0-9.996093 4.476563-9.996093 9.996094 0 5.523438 4.476562 9.996094 9.996093 9.996094h81.566407c22.050781 0 39.988281-17.9375 39.988281-39.988282 0-1.757812-.125-3.5-.351563-5.226562 57.066406-58.660156 65.113282-66.902344 65.457032-67.3125 7.125-8.410156 19.773437-9.476562 28.1875-2.382812 8.421874 7.121093 9.488281 19.761718 2.34375 28.21875l-89.667969 107.195312c-13.09375 12.570312-30.285157 19.488281-48.457031 19.488281h-132.902344c-13.023438 0-25.351563 4.980469-34.703125 14.015625l-8.496094 8.199219-78.320313-78.316406c18.304688-34.339844 52.652344-53.871094 95.375-53.871094zm-125.320312 66.34375c3.296875-3.296875 8.359375-3.890625 12.378906-1.40625 1.527344.929687 87.035156 86.648437 87.5625 87.355469 2.925782 3.941406 2.507813 9.539062-.917968 12.96875l-41.320313 40.707031-98.230469-98.980469zm0 0"/><path d="m156.457031 211.941406h239.933594c16.539063 0 29.992187-13.453125 29.992187-29.992187 0-25.199219 0-133.835938 0-151.957031 0-16.539063-13.453124-29.992188-29.992187-29.992188h-239.933594c-16.539062 0-29.992187 13.453125-29.992187 29.992188v151.957031c0 16.539062 13.453125 29.992187 29.992187 29.992187zm249.929688-131.964844h-259.925781v-19.992187h259.925781zm-9.996094 111.972657h-239.933594c-5.511719 0-9.996093-4.488281-9.996093-10v-81.976563h259.925781v81.976563c0 5.511719-4.484375 10-9.996094 10zm-239.933594-171.953125h239.933594c5.511719 0 9.996094 4.484375 9.996094 9.996094v9.996093h-259.925781v-9.996093c0-5.511719 4.484374-9.996094 9.996093-9.996094zm0 0"/><path d="m376.394531 151.957031h-39.988281c-5.519531 0-9.996094 4.476563-9.996094 10 0 5.519531 4.476563 9.996094 9.996094 9.996094h39.988281c5.523438 0 10-4.476563 10-9.996094 0-5.523437-4.476562-10-10-10zm0 0"/></g><g transform="matrix(0.1171875 0 0 0.1171875 29 26)" id="L1_3"><path d="m210 312c-5.519531 0-10 4.480469-10 10s4.480469 10 10 10 10-4.480469 10-10-4.480469-10-10-10zm0 0"/><path d="m210 372c-5.519531 0-10 4.480469-10 10s4.480469 10 10 10 10-4.480469 10-10-4.480469-10-10-10zm0 0"/><path d="m382 312h-132c-5.523438 0-10 4.476562-10 10s4.476562 10 10 10h132c5.523438 0 10-4.476562 10-10s-4.476562-10-10-10zm0 0"/><path d="m382 372h-132c-5.523438 0-10 4.476562-10 10s4.476562 10 10 10h132c5.523438 0 10-4.476562 10-10s-4.476562-10-10-10zm0 0"/><path d="m30 485.332031v16.667969c0 5.523438 4.476562 10 10 10s10-4.476562 10-10v-16.667969l4-5.332031c16.765625-22.351562 26-50.054688 26-78v-282h10c5.515625 0 10 4.484375 10 10v92c0 5.523438 4.476562 10 10 10s10-4.476562 10-10v-92c0-16.542969-13.457031-30-30-30h-10v-20c0-9.835938-3.535156-19.125-10-26.4375v-23.5625c0-16.542969-13.457031-30-30-30s-30 13.457031-30 30v23.570312c-6.398438 7.253907-10 16.648438-10 26.429688v322c0 27.949219 9.234375 55.648438 26 78zm30-93.332031h-40v-272h40zm-40-292v-20c0-10.980469 8.945312-20 20-20 10.867188 0 20 8.8125 20 20v20zm20-80c5.515625 0 10 4.484375 10 10v11.28125c-3.238281-.839844-6.597656-1.28125-10-1.28125s-6.761719.441406-10 1.277344v-11.277344c0-5.515625 4.484375-10 10-10zm19.535156 392c-1.765625 19.054688-8.53125 37.566406-19.535156 53.242188-11.003906-15.675782-17.769531-34.1875-19.535156-53.242188zm0 0"/><path d="m512 162v-50c0-22.054688-17.945312-40-40-40-2.261719 0-282 0-282 0-27.570312 0-50 22.429688-50 50v310h-30c-5.523438 0-10 4.476562-10 10 0 38.597656 31.402344 70 70 70h232c29.269531 0 50-24.925781 50-52.140625v-287.859375h50c5.523438 0 10-4.476562 10-10zm-342 330c-24.144531 0-44.351562-17.207031-48.996094-40h230.996094v10c0 11.246094 3.734375 21.636719 10.023438 30zm262-380v347.859375c0 16.5625-12.003906 32.140625-30 32.140625-16.542969 0-30-13.457031-30-30v-20c0-5.523438-4.476562-10-10-10h-202v-310c0-16.542969 13.457031-30.101562 30-30.101562h247.347656c-3.425781 5.941406-5.347656 12.894531-5.347656 20.101562zm60 40h-40v-40c0-11.1875 9.085938-20 20-20 11.027344 0 20 8.972656 20 20zm0 0"/><path d="m271.367188 254.347656c5.699218 4.8125 11.597656 9.789063 17.855468 15.210938 1.878906 1.628906 4.210938 2.441406 6.546875 2.441406 2.335938 0 4.671875-.8125 6.550781-2.441406 6.253907-5.421875 12.148438-10.398438 17.851563-15.207032 31.832031-26.863281 54.828125-46.273437 54.828125-74.773437 0-26.679687-19.597656-47.578125-44.617188-47.578125-16.824218 0-27.796874 9.019531-34.613281 18.195312-6.816406-9.175781-17.792969-18.195312-34.621093-18.195312-25.015626 0-44.609376 20.898438-44.609376 47.578125 0 28.5 23 47.90625 54.828126 74.769531zm-10.21875-102.347656c18.257812 0 24.730468 21.785156 24.996093 22.714844 1.210938 4.289062 5.121094 7.238281 9.582031 7.261718h.050782c4.457031 0 8.382812-2.976562 9.617187-7.261718.265625-.929688 6.738281-22.714844 24.984375-22.714844 14.035156 0 24.621094 11.855469 24.621094 27.578125 0 19.207031-17.964844 34.367187-47.730469 59.488281-3.730469 3.148438-7.546875 6.367188-11.5 9.746094-3.957031-3.378906-7.773437-6.597656-11.503906-9.75-29.761719-25.117188-47.726563-40.277344-47.726563-59.484375 0-15.722656 10.582032-27.578125 24.609376-27.578125zm0 0"/></g><g transform="matrix(0.1171875 0 0 0.1171875 103 150)" id="L1_4"><path d="M509.042,355.862l-24.409-24.21c-3.923-3.891-10.255-3.864-14.145,0.058c-3.891,3.922-3.864,10.255,0.058,14.145    l24.408,24.21c1.95,1.935,4.497,2.901,7.043,2.901c2.573,0,5.146-0.987,7.101-2.959    C512.99,366.085,512.964,359.752,509.042,355.862z"/><path d="M459.762,306.881c-3.906-3.906-10.237-3.906-14.145,0l-0.017,0.017c-3.906,3.906-3.897,10.231,0.009,14.137    c1.95,1.951,4.509,2.926,7.067,2.926c2.564,0,5.13-0.979,7.085-2.934C463.667,317.121,463.667,310.788,459.762,306.881z"/><path d="M374.493,353l97.028-97.027c14.695-14.696,14.695-38.608-0.001-53.304c-5.182-5.182-11.511-8.528-18.177-10.055    c2.286-4.914,3.496-10.307,3.496-15.888c0-10.068-3.921-19.533-11.039-26.651c-5.583-5.584-12.612-9.19-20.241-10.489    c4.295-13.086,1.259-28.073-9.128-38.459c-5.711-5.71-12.814-9.19-20.227-10.462c1.242-3.769,1.897-7.749,1.897-11.833    c0-10.068-3.921-19.533-11.039-26.651c-7.119-7.118-16.584-11.039-26.651-11.039c-6.393,0-12.54,1.586-18.001,4.564l-0.965-1.037    c-12.542-13.478-30.295-21.207-48.704-21.207h-78.54c-5.523,0-10.002,4.479-10.002,10.002v13.116    c0,5.249,0.888,10.359,2.586,15.164c-4.524-1.879-9.419-2.866-14.465-2.866c-10.068,0-19.533,3.921-26.652,11.039    c-10.392,10.392-13.425,25.39-9.12,38.48c-7.419,1.269-14.532,4.751-20.248,10.466c-7.118,7.119-11.039,16.584-11.039,26.651    c0,4.076,0.653,8.05,1.89,11.811c-7.62,1.303-14.642,4.907-20.22,10.486c-11.477,11.477-13.99,28.577-7.539,42.516    c-6.831,1.561-13.105,5.001-18.183,10.078c-14.695,14.695-14.695,38.607,0,53.303l19.954,19.953L2.929,391.893    c-3.906,3.906-3.906,10.239,0,14.146c1.953,1.952,4.513,2.93,7.072,2.93s5.119-0.977,7.072-2.93l99.182-99.182    c5.615,3.204,11.987,4.918,18.628,4.918c10.067,0,19.532-3.921,26.651-11.04c7.734-7.733,11.392-18.02,10.985-28.172    c0.507,0.021,1.014,0.036,1.521,0.036c9.65-0.001,19.305-3.675,26.651-11.021c7.118-7.119,11.039-16.584,11.039-26.651    c0-0.509-0.017-1.015-0.037-1.521c0.501,0.02,1.002,0.036,1.504,0.036c9.651,0,19.304-3.674,26.651-11.021    c7.118-7.119,11.039-16.584,11.039-26.651c0-0.509-0.017-1.015-0.037-1.521c0.501,0.02,1.002,0.036,1.504,0.036    c9.652,0,19.304-3.674,26.651-11.021c13.808-13.808,14.639-35.751,2.5-50.542l66.394-66.394c3.341-3.342,7.781-5.181,12.506-5.181    s9.166,1.839,12.507,5.181c3.341,3.341,5.18,7.781,5.18,12.506c0,4.724-1.839,9.166-5.181,12.506l-9.789,9.789l-35.518,35.518    c-3.906,3.906-3.906,10.239,0,14.146c1.953,1.952,4.513,2.93,7.072,2.93s5.119-0.977,7.072-2.93l35.518-35.518    c6.895-6.896,18.116-6.897,25.013-0.001c6.896,6.897,6.896,18.117,0,25.014l-9.79,9.79l-25.728,25.728    c-3.906,3.906-3.906,10.239,0,14.146c1.953,1.952,4.513,2.93,7.072,2.93s5.119-0.977,7.072-2.93l25.728-25.728    c3.341-3.342,7.782-5.181,12.506-5.181c4.725,0,9.166,1.839,12.507,5.181c3.341,3.341,5.18,7.781,5.18,12.506    c0,4.724-1.839,9.166-5.181,12.506l-13.437,13.437l-12.291,12.291c-3.906,3.906-3.906,10.239,0,14.146    c1.953,1.952,4.513,2.93,7.072,2.93s5.119-0.977,7.072-2.93l12.3-12.3c6.897-6.885,18.111-6.884,25.004,0.009    c6.897,6.896,6.897,18.117,0,25.014l-97.028,97.027c-24.364,24.365-56.745,38.47-91.178,39.72    c-2.531,0.092-4.935,1.141-6.723,2.937l-89.632,89.964c-3.899,3.913-3.888,10.246,0.026,14.145    c1.951,1.944,4.505,2.917,7.059,2.917c2.565,0,5.132-0.981,7.085-2.943l65.927-66.17c16.746,10.743,36.44,15.851,56.465,14.527    l51.598,51.599c1.953,1.952,4.513,2.93,7.072,2.93c2.56,0,5.119-0.977,7.072-2.93c3.906-3.906,3.906-10.239,0-14.146    l-54.86-54.866c-2.077-2.076-4.963-3.137-7.89-2.897l-3.171,0.26c-14.637,1.2-29.105-2.006-41.737-9.085l6.428-6.451    C311.894,396.026,347.486,380.008,374.493,353z M147.39,286.591c-3.341,3.342-7.783,5.181-12.506,5.181    c-4.725,0-9.166-1.839-12.506-5.181l-27.026-27.025c-6.896-6.896-6.896-18.117,0-25.014c3.341-3.342,7.783-5.181,12.507-5.181    c4.724,0,9.166,1.839,12.506,5.181l27.026,27.025C154.286,268.473,154.286,279.694,147.39,286.591z M186.549,247.432    c-6.897,6.896-18.12,6.896-25.014,0l-27.026-27.026l-13.438-13.438c-6.896-6.896-6.896-18.117,0-25.013    c3.341-3.342,7.783-5.181,12.506-5.181c4.725,0,9.166,1.839,12.506,5.181l40.463,40.463c0,0,0,0,0.001,0    c3.342,3.342,5.181,7.783,5.181,12.507S189.889,244.091,186.549,247.432z M225.706,208.274c-6.897,6.895-18.119,6.896-25.014,0    l-50.253-50.253c-3.341-3.341-5.18-7.781-5.18-12.506c0-4.724,1.839-9.166,5.181-12.506c3.448-3.448,7.978-5.172,12.506-5.172    c4.526,0,9.051,1.722,12.498,5.164l22.904,22.904l27.356,27.356h0.001c3.34,3.341,5.179,7.781,5.179,12.506    C230.886,200.492,229.047,204.934,225.706,208.274z M264.864,169.116c-6.896,6.896-18.117,6.896-25.013,0l-50.253-50.253    c-0.005-0.005-0.011-0.01-0.017-0.016l-9.773-9.773c-6.896-6.897-6.896-18.117,0-25.014c3.448-3.449,7.978-5.173,12.507-5.173    c4.529,0,9.059,1.724,12.506,5.173l60.041,60.041c3.342,3.341,5.181,7.782,5.181,12.506    C270.044,161.333,268.206,165.776,264.864,169.116z M267.494,118.444l-27.472-27.472c3.115,0.665,6.318,1.018,9.578,1.017    c0.073,0,0.147,0,0.221,0l27.448-0.129c5.523-0.026,9.981-4.525,9.955-10.049c-0.026-5.508-4.499-9.955-10.001-9.955    c-0.016,0-0.032,0-0.048,0l-27.448,0.129c-0.042,0-0.082,0-0.124,0c-6.763,0-13.124-2.625-17.92-7.398    c-4.826-4.804-7.483-11.198-7.483-18.008v-3.114h68.538c12.875,0,25.29,5.405,34.062,14.831l0.407,0.437L267.494,118.444z"/></g><g transform="matrix(0.1171872690320015 0 0 0.1171872690320015 280 269)" id="L1_5"><path d="M135.105,191.054L17.072,73.021c-3.906-3.903-10.237-3.904-14.143,0c-3.905,3.905-3.905,10.237,0,14.143l115.099,115.097    l-0.02,13.781c-0.008,5.523,4.463,10.007,9.985,10.015c0.005,0,0.01,0,0.015,0c5.516,0,9.992-4.468,10-9.985l0.026-17.932    C138.038,195.483,136.984,192.933,135.105,191.054z"/><path d="M225.871,117.994c-0.005,0-0.01,0-0.015,0l-23.595,0.033L87.165,2.929c-3.905-3.904-10.237-3.904-14.143,0    c-3.905,3.905-3.905,10.237,0,14.143l118.033,118.032c1.876,1.875,4.419,2.929,7.071,2.929c0.004,0,0.01,0,0.014,0l27.745-0.039    c5.523-0.008,9.994-4.491,9.986-10.014C235.863,122.461,231.388,117.994,225.871,117.994z"/><path d="M438.981,2.93c-1.86-1.86-4.44-2.93-7.07-2.93s-5.21,1.069-7.07,2.93c-1.86,1.861-2.93,4.44-2.93,7.07    s1.07,5.21,2.93,7.069c1.86,1.861,4.44,2.931,7.07,2.931s5.21-1.07,7.07-2.931c1.86-1.859,2.93-4.439,2.93-7.069    S440.841,4.79,438.981,2.93z"/><path d="M409.692,32.216c-3.905-3.904-10.237-3.904-14.142,0l-85.811,85.811l-13.782-0.02c-0.049,0-0.095,0-0.143,0    c-26.456,0-51.325,10.3-70.036,29.01l-8.987,8.989c-3.905,3.906-3.905,10.237,0,14.143c1.953,1.952,4.512,2.929,7.071,2.929    c2.559,0,5.119-0.977,7.071-2.929l8.988-8.989c14.934-14.934,34.779-23.152,55.894-23.152c0.038,0,0.077,0,0.114,0l17.932,0.025    c0.005,0,0.009,0,0.014,0c2.652,0,5.196-1.054,7.071-2.929l88.746-88.745C413.597,42.454,413.597,36.122,409.692,32.216z"/><path d="M509.072,73.02c-3.904-3.904-10.237-3.904-14.142,0L376.897,191.054c-1.878,1.879-2.933,4.428-2.929,7.086l0.04,27.745    c0.008,5.518,4.483,9.985,10,9.985c0.005,0,0.01,0,0.015,0c5.523-0.008,9.994-4.491,9.986-10.015l-0.034-23.595L509.072,87.163    C512.977,83.258,512.977,76.926,509.072,73.02z"/><path d="M509.072,424.837L393.974,309.739l0.02-13.782c0.019-13.139-2.524-25.953-7.558-38.088    c-2.116-5.102-7.967-7.521-13.068-5.406c-5.102,2.116-7.522,7.967-5.406,13.068c4.017,9.685,6.046,19.912,6.031,30.397    l-0.026,17.932c-0.004,2.657,1.05,5.207,2.929,7.086L494.93,438.98c1.953,1.952,4.512,2.929,7.071,2.929s5.119-0.977,7.071-2.929    C512.977,435.074,512.978,428.742,509.072,424.837z"/><path d="M438.981,494.929L320.947,376.897c-1.876-1.875-4.419-2.929-7.071-2.929c-0.004,0-0.01,0-0.014,0l-27.745,0.039    c-5.523,0.008-9.994,4.491-9.986,10.014c0.008,5.519,4.483,9.986,10,9.986c0.005,0,0.01,0,0.015,0l23.595-0.033l115.098,115.098    c1.953,1.952,4.512,2.929,7.071,2.929s5.119-0.977,7.071-2.929C442.886,505.167,442.886,498.835,438.981,494.929z"/><path d="M87.161,494.93c-1.86-1.861-4.44-2.93-7.07-2.93s-5.21,1.069-7.07,2.93c-1.86,1.86-2.93,4.44-2.93,7.07    s1.07,5.21,2.93,7.069c1.86,1.86,4.44,2.931,7.07,2.931c2.63,0,5.21-1.07,7.07-2.931c1.87-1.859,2.93-4.439,2.93-7.069    S89.031,496.79,87.161,494.93z"/><path d="M357.633,253.729c-2.268-2.268-4.832-4.06-7.565-5.391c2.338-4.16,3.589-8.867,3.589-13.769    c0-7.525-2.93-14.6-8.251-19.922c-2.407-2.406-5.144-4.285-8.067-5.637c5.043-10.486,3.231-23.471-5.451-32.154    c-8.681-8.679-21.66-10.494-32.145-5.456c-1.375-2.959-3.27-5.687-5.646-8.063c-10.986-10.984-28.858-10.982-39.843,0    l-39.925,39.926c-0.762-8.093-4.939-15.795-12.039-20.766c-6.341-4.44-14.024-6.104-21.634-4.682    c-7.61,1.422-14.174,5.745-18.486,12.174l-27.393,40.85c-11.007,16.415-16.811,35.539-16.783,55.305l0.034,23.594L2.93,424.837    c-3.905,3.905-3.905,10.237,0,14.143c1.952,1.952,4.512,2.929,7.071,2.929s5.119-0.977,7.071-2.929l118.033-118.033    c1.878-1.879,2.933-4.429,2.929-7.086l-0.04-27.744c-0.022-15.774,4.609-31.037,13.395-44.138l27.392-40.85    c1.294-1.929,3.264-3.226,5.547-3.652c2.282-0.426,4.589,0.072,6.491,1.404c3.687,2.582,4.747,7.619,2.414,11.468l-10.704,17.656    c-3.376,5.568-2.107,12.527,3.016,16.547c5.123,4.02,12.185,3.594,16.79-1.01l66.061-66.062c3.187-3.188,8.372-3.187,11.559,0    c1.543,1.544,2.394,3.596,2.394,5.779c0,1.853-0.618,3.607-1.747,5.041l-39.094,39.185c-3.905,3.905-3.905,10.237,0,14.143    c3.905,3.904,10.237,3.904,14.143,0l50.538-50.629c3.187-3.187,8.372-3.187,11.558-0.001c3.187,3.188,3.187,8.372,0,11.559    l-50.583,50.584c-3.905,3.905-3.905,10.237,0,14.143c1.953,1.952,4.512,2.929,7.071,2.929s5.119-0.977,7.071-2.929l39.14-39.141    c3.205-2.516,7.868-2.305,10.819,0.647c1.544,1.544,2.394,3.596,2.394,5.779c0,2.183-0.85,4.234-2.394,5.778l-38.447,38.447    c-3.905,3.905-3.905,10.237,0,14.143c1.953,1.952,4.512,2.929,7.071,2.929s5.119-0.977,7.071-2.929l25.71-25.71    c3.205-2.521,7.87-2.309,10.823,0.645c1.544,1.543,2.394,3.596,2.394,5.779s-0.85,4.235-2.394,5.778l-71.41,71.411    c-14.934,14.934-34.779,23.152-55.894,23.152c-0.038,0-0.077,0-0.114,0l-17.932-0.025c-0.005,0-0.009,0-0.014,0    c-2.652,0-5.196,1.054-7.071,2.929l-92.912,92.912c-3.905,3.905-3.905,10.237,0,14.143c1.953,1.952,4.512,2.929,7.071,2.929    c2.559,0,5.119-0.977,7.071-2.929l89.977-89.978l13.782,0.02c0.049,0,0.095,0,0.143,0c26.456,0,51.325-10.3,70.036-29.01    l71.407-71.411C368.617,282.588,368.617,264.714,357.633,253.729z"/></g><path d="M433.601,67.001c-24.7-24.7-57.4-38.2-92.3-38.2s-67.7,13.6-92.4,38.3l-12.9,12.9l-13.1-13.1   c-24.7-24.7-57.6-38.4-92.5-38.4c-34.8,0-67.6,13.6-92.2,38.2c-24.7,24.7-38.3,57.5-38.2,92.4c0,34.9,13.7,67.6,38.4,92.3   l187.8,187.8c2.6,2.6,6.1,4,9.5,4c3.4,0,6.9-1.3,9.5-3.9l188.2-187.5c24.7-24.7,38.3-57.5,38.3-92.4   C471.801,124.501,458.301,91.701,433.601,67.001z M414.401,232.701l-178.7,178l-178.3-178.3c-19.6-19.6-30.4-45.6-30.4-73.3   s10.7-53.7,30.3-73.2c19.5-19.5,45.5-30.3,73.1-30.3c27.7,0,53.8,10.8,73.4,30.4l22.6,22.6c5.3,5.3,13.8,5.3,19.1,0l22.4-22.4   c19.6-19.6,45.7-30.4,73.3-30.4c27.6,0,53.6,10.8,73.2,30.3c19.6,19.6,30.3,45.6,30.3,73.3   C444.801,187.101,434.001,213.101,414.401,232.701z" transform="matrix(0.10835815966129303 0.012748018838465214 -0.012748018838465214 0.10835815966129303 138.44369506835938 57.44152069091797)" id="L1_6"/><g transform="matrix(0.1171875 0 0 0.1171875 189 203)" id="L1_7"><path d="M70,263.972c-5.52,0-10,4.48-10,10c0,5.52,4.48,10,10,10s10-4.48,10-10C80,268.452,75.52,263.972,70,263.972z"/><path d="M512,298.972c0-14.12-6.542-26.735-16.748-34.991c13.004-10.503,18.699-26.759,16.137-42.495    c-3.479-21.387-23.366-37.514-46.26-37.514c-11.035,0-83.524,0-95.258,0l2.964-8.897c16.948-50.832,1.209-105.148-36.094-136.925    c-20.835-17.974-56.381-11.981-67.3,17.756c-0.761,2.072-0.814,4.338-0.152,6.445c8.307,26.422,8.424,44.188,0.406,61.321    c-8.314,17.769-26.201,36.426-59.809,62.385c-8.067,6.23-15.119,10.038-21.938,13.721c-10.742,5.801-20.941,11.309-31.485,24.193    H120v-10c0-5.523-4.477-10-10-10H10c-5.523,0-10,4.477-10,10v260c0,5.523,4.477,10,10,10h100c5.523,0,10-4.477,10-10v-30h56.089    c29.073,25.825,66.388,40,105.531,40c23.081,0,99.992,0,125.38,0c24.874,0,45-20.123,45-45c0-9.244-2.805-17.845-7.604-25H447    c24.874,0,45-20.123,45-45c0-10.444-3.586-20.06-9.578-27.705C499.51,335.049,512,318.597,512,298.972z M100,463.972H20v-240h80    V463.972z M467,323.972c-9.726,0-85.743,0-96,0c-5.522,0-10,4.477-10,10s4.478,10,10,10h76c13.785,0,25,11.215,25,25    c0,13.819-11.177,25-25,25c-28.049,0-53.096,0-76,0c-5.522,0-10,4.477-10,10s4.478,10,10,10h36c13.785,0,25,11.215,25,25    c0,13.819-11.177,25-25,25c-26.171,0-103.928,0-125.38,0c-35.396,0-69.075-13.25-94.834-37.308    c-1.852-1.73-4.292-2.692-6.826-2.692H120v-180h41.36c3.179,0,6.168-1.511,8.053-4.071c9.02-12.252,16.998-16.561,28.041-22.524    c7.173-3.874,15.303-8.265,24.66-15.49c68.466-52.885,84.133-85.286,67.359-141.921c6.631-12.749,23.17-16.188,34.916-6.044    c31.873,27.862,43.442,72.935,29.474,114.831l-5.071,15.221H336c-5.522,0-10,4.477-10,10s4.478,10,10,10    c15.357,0,113.354,0,129.13,0c13.196,0,24.597,8.91,26.52,20.727c2.606,15.999-9.689,29.273-24.649,29.273    c-10.245,0-86.243,0-96,0c-5.522,0-10,4.477-10,10s4.478,10,10,10c9.726,0,85.743,0,96,0c13.785,0,25,11.215,25,25    C492,312.791,480.823,323.972,467,323.972z"/><path d="M70,303.972c-5.523,0-10,4.477-10,10v100c0,5.523,4.477,10,10,10s10-4.477,10-10v-100    C80,308.449,75.523,303.972,70,303.972z"/></g><g transform="matrix(0.1171875 0 0 0.1171875 24 223)" id="L1_9"><path d="M506.955,1.314c-3.119-1.78-6.955-1.75-10.045,0.078L313.656,109.756c-4.754,2.811-6.329,8.943-3.518,13.697    c2.81,4.753,8.942,6.328,13.697,3.518l131.482-77.749L210.411,303.335L88.603,266.069l158.965-94    c4.754-2.812,6.329-8.944,3.518-13.698c-2.81-4.753-8.943-6.33-13.697-3.518L58.91,260.392c-3.41,2.017-5.309,5.856-4.84,9.791    s3.216,7.221,7.004,8.38l145.469,44.504L270.72,439.88c0.067,0.121,0.136,0.223,0.207,0.314c1.071,1.786,2.676,3.245,4.678,4.087    c1.253,0.527,2.57,0.784,3.878,0.784c2.563,0,5.086-0.986,6.991-2.849l73.794-72.12l138.806,42.466    c0.96,0.293,1.945,0.438,2.925,0.438c2.116,0,4.206-0.672,5.948-1.961C510.496,409.153,512,406.17,512,403V10    C512,6.409,510.074,3.093,506.955,1.314z M271.265,329.23c-1.158,1.673-1.779,3.659-1.779,5.694v61.171l-43.823-79.765    l193.921-201.21L271.265,329.23z M289.486,411.309v-62.867l48.99,14.988L289.486,411.309z M492,389.483l-196.499-60.116    L492,45.704V389.483z"/><path d="M164.423,347.577c-3.906-3.905-10.236-3.905-14.143,0l-93.352,93.352c-3.905,3.905-3.905,10.237,0,14.143    C58.882,457.024,61.441,458,64,458s5.118-0.976,7.071-2.929l93.352-93.352C168.328,357.815,168.328,351.483,164.423,347.577z"/><path d="M40.071,471.928c-3.906-3.903-10.236-3.903-14.142,0.001l-23,23c-3.905,3.905-3.905,10.237,0,14.143    C4.882,511.024,7.441,512,10,512s5.118-0.977,7.071-2.929l23-23C43.976,482.166,43.976,475.834,40.071,471.928z"/><path d="M142.649,494.34c-1.859-1.86-4.439-2.93-7.069-2.93c-2.641,0-5.21,1.07-7.07,2.93c-1.86,1.86-2.93,4.43-2.93,7.07    c0,2.63,1.069,5.21,2.93,7.07c1.86,1.86,4.44,2.93,7.07,2.93s5.21-1.07,7.069-2.93c1.86-1.86,2.931-4.44,2.931-7.07    C145.58,498.77,144.51,496.2,142.649,494.34z"/><path d="M217.051,419.935c-3.903-3.905-10.233-3.905-14.142,0l-49.446,49.445c-3.905,3.905-3.905,10.237,0,14.142    c1.953,1.953,4.512,2.929,7.071,2.929s5.118-0.977,7.071-2.929l49.446-49.445C220.956,430.172,220.956,423.84,217.051,419.935z"/><path d="M387.704,416.139c-3.906-3.904-10.236-3.904-14.142,0l-49.58,49.58c-3.905,3.905-3.905,10.237,0,14.143    c1.953,1.952,4.512,2.929,7.071,2.929s5.118-0.977,7.071-2.929l49.58-49.58C391.609,426.377,391.609,420.045,387.704,416.139z"/><path d="M283.5,136.31c-1.86-1.86-4.44-2.93-7.07-2.93s-5.21,1.07-7.07,2.93c-1.859,1.86-2.93,4.44-2.93,7.08    c0,2.63,1.07,5.2,2.93,7.06c1.86,1.87,4.44,2.93,7.07,2.93s5.21-1.06,7.07-2.93c1.859-1.86,2.93-4.43,2.93-7.06    C286.43,140.75,285.36,138.17,283.5,136.31z"/></g><g transform="matrix(0.11101414263248444 0.021002676337957382 -0.021002676337957382 0.11101414263248444 138.52391052246094 307.19244384765625)" id="L1_10"><path d="m478.636719 221.765625c.277343-.75.4375-1.535156.472656-2.335937 0-.84375-.136719-1.683594-.398437-2.484376l-.617188-1.746093c-6.53125-63.125-37.867188-121.070313-87.121094-161.085938-3.519531-2.867187-7.199218-5.457031-10.878906-8.113281-.183594-.152344-.28125-.367188-.480469-.511719s-.359375-.128906-.527343-.234375c-40.722657-29.191406-89.542969-44.929687-139.648438-45.023437-2.0625 0-4.136719 0-5.679688.160156-26.726562.519531-53.164062 5.605469-78.175781 15.039063-21.683593-16.914063-51.117187-19.980469-75.824219-7.898438-24.707031 12.082031-40.359374 37.199219-40.320312 64.699219.480469 9.148437 2.605469 18.132812 6.28125 26.519531-8.164062 11.160156-15.351562 23-21.480469 35.394531-.121093.191407-.191406.398438-.296875.597657-56.71875 117.277343-9.523437 258.390624 106.339844 317.945312 115.859375 59.558594 258.078125 15.8125 320.4375-98.566406 17.078125-31.464844 26.785156-66.398438 28.382812-102.160156.25-3.859376.335938-7.792969.335938-11.730469 0-6.199219-.320312-12.34375-.800781-18.464844zm-23.246094-41.054687c-1.015625-.902344-1.953125-1.945313-3.015625-2.777344-10.453125-7.9375-22.300781-13.855469-34.929688-17.445313-11.5-2.886719-23.519531-3.011719-35.078124-.367187-9.832032 2.226562-20.027344 2.277344-29.882813.148437-19.125-4.175781-34.238281-7.46875-42.253906-20.269531-11.480469-18.402344-6.097657-44.265625 6.015625-53.367188 3.992187-2.753906 8.917968-3.804687 13.6875-2.921874 8.484375.695312 17.011718-.742188 24.800781-4.175782 8.289063-3.882812 15.652344-9.488281 21.601563-16.449218 1.511718 1.167968 3.109374 2.21875 4.589843 3.425781 36.101563 29.390625 62.128907 69.3125 74.464844 114.199219zm-343.953125-164.480469c30.910156.050781 55.953125 25.09375 56 56 0 23.929687-35.941406 78.714843-56 106.488281-19.019531-25.703125-35.546875-53.164062-49.351562-82.007812-3.761719-7.660157-6.019532-15.96875-6.648438-24.480469.035156-30.914063 25.085938-55.964844 56-56zm-96 224c.03125-14.90625 1.535156-29.777344 4.488281-44.390625.855469 11.121094 2.304688 21.015625 3.601563 29.597656 4.957031 32.800781 9.640625 63.722656 33.816406 92 10.109375 11.914062 27.039062 31.832031 53.214844 34.777344 26.175781 2.945312 58.953125-12.113282 68.421875-16.800782l3.632812-1.832031c5.03125-3.167969 10.78125-5.007812 16.714844-5.351562 10.121094.917969 19.496094 5.707031 26.175781 13.367187 13.652344 15.113282 17.117188 40.347656 7.414063 54-3.109375 4.054688-7.402344 7.039063-12.289063 8.539063-8.363281 2.796875-15.472656 8.464843-20.0625 16-6.761718 12.242187-8.019531 26.777343-3.457031 40-105.359375-20.414063-181.507813-112.585938-181.671875-219.90625zm224 224c-7.730469 0-15.453125-.398438-23.144531-1.191407-.65625-.839843-1.265625-1.714843-1.824219-2.625-5.40625-10-5.464844-22.042968-.152344-32.09375 2.886719-4.585937 7.359375-7.949218 12.5625-9.449218 7.628906-2.628906 14.285156-7.515625 19.078125-14.007813 13.914063-19.566406 9.976563-53.464843-8.558593-73.96875-9.640626-11.023437-23.28125-17.742187-37.894532-18.664062h-.355468c-8.425782.253906-16.636719 2.699219-23.832032 7.097656l-3.414062 1.726563c-17.480469 8.617187-42.351563 17.136718-59.566406 15.199218-19.867188-2.222656-33.664063-18.480468-42.816407-29.246094-21.21875-24.800781-25.371093-52.242187-30.167969-84-5.148437-27.167968-5.351562-55.039062-.609374-82.28125 4.285156-8.675781 9.125-17.066406 14.496093-25.121093.265625.53125.558594 1.074219.800781 1.601562.511719 1.015625 1.039063 2.023438 1.597657 3.039063.800781 1.511718 1.601562 3.023437 2.402343 4.546875.550782 1.023437 1.109376 2.046875 1.679688 3.078125.847656 1.519531 1.703125 3.039062 2.566406 4.558594.578125 1.007812 1.152344 2.019531 1.738282 3.027343.890624 1.519531 1.78125 3.03125 2.679687 4.542969.589844.992188 1.175781 1.976562 1.773437 2.960938.945313 1.597656 1.898438 3.09375 2.851563 4.636718.542969.875 1.078125 1.761719 1.597656 2.625 1.183594 1.898438 2.359375 3.738282 3.535157 5.601563.3125.480469.625.984375.929687 1.457031 1.464844 2.269531 2.917969 4.484375 4.34375 6.644531.542969.800781 1.070313 1.601563 1.601563 2.402344.878906 1.320313 1.757812 2.640625 2.613281 3.902344l1.898437 2.777343c.6875 1.015626 1.382813 2.03125 2.054688 3l1.917968 2.757813c.59375.859375 1.1875 1.699219 1.753907 2.503906.566406.808594 1.207031 1.722657 1.800781 2.546875.589844.824219.992188 1.398438 1.464844 2.0625l1.597656 2.207032 1.304688 1.808593 1.273437 1.753907 1.039063 1.40625.976562 1.328124.582031.800782c.714844.96875 1.257813 1.695312 1.410157 1.894531 1.507812 2.015625 3.878906 3.203125 6.398437 3.203125s4.890625-1.1875 6.398437-3.203125c6.714844-8.902344 65.617188-87.871094 65.617188-124.847656 0-2.335938-.144531-4.65625-.367188-6.960938-.070312-.710937-.183593-1.421875-.273437-2.132812-.207031-1.601563-.453125-3.203125-.796875-4.800781-.152344-.800782-.320312-1.550782-.496094-2.320313-.371094-1.601563-.800781-3.199219-1.289062-4.800781-.199219-.640625-.367188-1.289063-.578125-1.917969-.71875-2.144531-1.527344-4.265625-2.445313-6.328125-.175781-.394531-.386718-.800781-.570312-1.160156-.800782-1.664063-1.597656-3.3125-2.519532-4.921875-.398437-.71875-.839843-1.414063-1.269531-2.121094-.769531-1.261719-1.570312-2.503906-2.402343-3.726563-.496094-.710937-1-1.421874-1.519532-2.121093-.273437-.351563-.503906-.726563-.800781-1.070313 16.644531-5.605468 33.90625-9.183594 51.410156-10.65625-12.472656 23.542969-16.546875 45.320313-11.890625 64.800782 3.472656 13.046874 10.0625 25.058593 19.203125 35 7.527344 9.320312 12.941407 16.039062 12.605469 27.007812-.6875 23.199219-26.886719 42.511719-36.800781 49.808594-13.003907 9.363281-27.539063 16.382812-42.957031 20.75-14.53125 4.746094-27.066407 8.839844-31.859376 23.144531-4.738281 18.890625 3.042969 38.710937 19.371094 49.328125 9.785156 5.285156 21.316406 6.304688 31.878906 2.816406 11.570313-2.6875 23.53125-3.261718 35.304688-1.6875 15.199219 2.152344 28.304688 4 34.519531 12.703125 3.6875 5.199219 3.496094 10.574219 2.777344 20.433594-1.640625 13.957031-.222656 28.105469 4.148437 41.460937 3.648438 10.945313 9.160157 27.472657 22.402344 29.378907.859375.136719 1.730469.207031 2.597656.207031 9.371094 0 15.105469-8.273438 21.136719-16.976562 2.664063-3.847657 5.601563-8 9.121094-12.167969 16.464844 26.601562 33.191406 48.800781 33.96875 49.855469 1.511719 2.015624 3.882813 3.199218 6.398437 3.199218 2.519532 0 4.890626-1.183594 6.402344-3.199218 17.355469-23.242188 33.175782-47.601563 47.351563-72.910157 9.828125 2.847657 19.1875 7.113281 27.78125 12.664063-40.027344 69-113.773438 111.457031-193.542969 111.421875zm149.320312-217.703125c11.886719 10.601562 18.683594 25.773437 18.679688 41.703125 0 5.753906-2.335938 17.160156-13.429688 38.824219-12.664062 23.472656-26.882812 46.066406-42.570312 67.632812-7.527344-10.488281-20.480469-29.105469-32.070312-48.671875-6.460938-10.726563-12.230469-21.847656-17.28125-33.304687-3.761719-7.660157-6.019532-15.96875-6.648438-24.480469.035156-30.914063 25.085938-55.964844 56-56 1.730469 0 3.445312.078125 5.152344.234375 11.960937 1.082031 23.25 6.019531 32.167968 14.0625zm74.398438 4.609375c-1.378906 30.429687-9.046875 60.242187-22.527344 87.558593-8.765625-5.542968-18.210937-9.941406-28.09375-13.089843 6.179688-11.566407 9.894532-24.296875 10.902344-37.375-.066406-27.453125-15.675781-52.5-40.296875-64.65625l-.503906-.222657c-1.789063-.863281-3.605469-1.671874-5.460938-2.398437-1.273437-.496094-2.59375-.882813-3.898437-1.296875-.800782-.242188-1.519532-.542969-2.296875-.800781-2.0625-.585938-4.160157-1.0625-6.269531-1.457031h-.105469c-1.277344-.238282-2.574219-.367188-3.871094-.535157-20.570313-2.847656-41.363281 3.390625-56.96875 17.089844-15.609375 13.703125-24.488281 33.511719-24.328125 54.277344.621094 10.664062 3.3125 21.109375 7.921875 30.746093 4.484375 10.210938 9.542969 20.160157 15.152344 29.796876-5 5.472656-9.578125 11.3125-13.699219 17.472656-2.199219 3.769531-4.976562 7.167968-8.230469 10.074218-1.601562-.242187-4.566406-3.65625-9.601562-18.625-3.671875-11.363281-4.824219-23.394531-3.367188-35.246093 2.078125-10.644531.035157-21.679688-5.710937-30.875-10.214844-14.285157-28.046875-16.800781-45.398438-19.261719-13.488281-1.84375-27.199218-1.226562-40.464844 1.816406-10.234374 1.957032-14.984374 2.6875-20.417968-.699218-9.925782-6.804688-14.886719-18.839844-12.640625-30.664063 2.136719-6.398437 8.539062-8.710937 21.601562-13 17.058594-4.894531 33.136719-12.707031 47.527344-23.09375 11.65625-8.550781 42.402344-31.242187 43.328125-62.199219.511719-16.9375-7.960938-27.386718-16.152344-37.488281-7.570312-8.109375-13.078125-17.917969-16.0625-28.601563-4.25-17.824218 1.015625-38.726562 15.296875-62.152343h.917969c44.042969.0625 87.097656 13.078125 123.800781 37.425781-4.238281 4.722656-9.367187 8.558594-15.097656 11.289062-5.578125 2.414063-11.675781 3.367188-17.726563 2.773438-8.414062-1.039062-16.90625 1.144531-23.777343 6.113281-18.140625 13.65625-26.269531 48.480469-9.964844 74.632813 11.605469 18.535156 31.429687 22.855468 53.078125 27.574218 11.652344 2.460938 23.695312 2.410157 35.328125-.152343 9.335937-2.226563 19.070313-2.199219 28.390625.089843 10.488281 3.023438 20.332031 7.953126 29.042969 14.535157 9.046875 7.503906 15.90625 17.300781 19.863281 28.367187.65625 7.066406 1.0625 14.152344 1.0625 21.351563 0 3.578125-.070312 7.199219-.3125 10.90625zm0 0"/><path d="m111.4375 96.230469c17.671875 0 32-14.324219 32-32 0-17.671875-14.328125-32-32-32s-32 14.328125-32 32c0 17.675781 14.328125 32 32 32zm0-48c8.835938 0 16 7.164062 16 16 0 8.835937-7.164062 16-16 16s-16-7.164063-16-16c0-8.835938 7.164062-16 16-16zm0 0"/><path d="m319.4375 280.230469c0 17.675781 14.328125 32 32 32s32-14.324219 32-32c0-17.671875-14.328125-32-32-32s-32 14.328125-32 32zm48 0c0 8.835937-7.164062 16-16 16s-16-7.164063-16-16c0-8.835938 7.164062-16 16-16s16 7.164062 16 16zm0 0"/></g></defs><g fi:class="KUsePattern"><pattern id="pattern_L1_0" width="350" height="350" patternUnits="userSpaceOnUse"><use xlink:href="#L1_0" x="-350" y="-350"/><use xlink:href="#L1_0" x="0" y="-350"/><use xlink:href="#L1_0" x="350" y="-350"/><use xlink:href="#L1_0" x="-350" y="0"/><use xlink:href="#L1_0" x="0" y="0"/><use xlink:href="#L1_0" x="350" y="0"/><use xlink:href="#L1_0" x="-350" y="350"/><use xlink:href="#L1_0" x="0" y="350"/><use xlink:href="#L1_0" x="350" y="350"/></pattern><rect x="0" y="0" width="100%" height="100%" fill="url(#pattern_L1_0)"/></g><g fi:class="KUsePattern"><pattern id="pattern_L1_2" width="350" height="350" patternUnits="userSpaceOnUse"><use xlink:href="#L1_2" x="-350" y="-350"/><use xlink:href="#L1_2" x="0" y="-350"/><use xlink:href="#L1_2" x="350" y="-350"/><use xlink:href="#L1_2" x="-350" y="0"/><use xlink:href="#L1_2" x="0" y="0"/><use xlink:href="#L1_2" x="350" y="0"/><use xlink:href="#L1_2" x="-350" y="350"/><use xlink:href="#L1_2" x="0" y="350"/><use xlink:href="#L1_2" x="350" y="350"/></pattern><rect x="0" y="0" width="100%" height="100%" fill="url(#pattern_L1_2)"/></g><g fi:class="KUsePattern"><pattern id="pattern_L1_3" width="350" height="350" patternUnits="userSpaceOnUse"><use xlink:href="#L1_3" x="-350" y="-350"/><use xlink:href="#L1_3" x="0" y="-350"/><use xlink:href="#L1_3" x="350" y="-350"/><use xlink:href="#L1_3" x="-350" y="0"/><use xlink:href="#L1_3" x="0" y="0"/><use xlink:href="#L1_3" x="350" y="0"/><use xlink:href="#L1_3" x="-350" y="350"/><use xlink:href="#L1_3" x="0" y="350"/><use xlink:href="#L1_3" x="350" y="350"/></pattern><rect x="0" y="0" width="100%" height="100%" fill="url(#pattern_L1_3)"/></g><g fi:class="KUsePattern"><pattern id="pattern_L1_4" width="350" height="350" patternUnits="userSpaceOnUse"><use xlink:href="#L1_4" x="-350" y="-350"/><use xlink:href="#L1_4" x="0" y="-350"/><use xlink:href="#L1_4" x="350" y="-350"/><use xlink:href="#L1_4" x="-350" y="0"/><use xlink:href="#L1_4" x="0" y="0"/><use xlink:href="#L1_4" x="350" y="0"/><use xlink:href="#L1_4" x="-350" y="350"/><use xlink:href="#L1_4" x="0" y="350"/><use xlink:href="#L1_4" x="350" y="350"/></pattern><rect x="0" y="0" width="100%" height="100%" fill="url(#pattern_L1_4)"/></g><g fi:class="KUsePattern"><pattern id="pattern_L1_5" width="350" height="350" patternUnits="userSpaceOnUse"><use xlink:href="#L1_5" x="-350" y="-350"/><use xlink:href="#L1_5" x="0" y="-350"/><use xlink:href="#L1_5" x="350" y="-350"/><use xlink:href="#L1_5" x="-350" y="0"/><use xlink:href="#L1_5" x="0" y="0"/><use xlink:href="#L1_5" x="350" y="0"/><use xlink:href="#L1_5" x="-350" y="350"/><use xlink:href="#L1_5" x="0" y="350"/><use xlink:href="#L1_5" x="350" y="350"/></pattern><rect x="0" y="0" width="100%" height="100%" fill="url(#pattern_L1_5)"/></g><g fi:class="KUsePattern"><pattern id="pattern_L1_6" width="350" height="350" patternUnits="userSpaceOnUse"><use xlink:href="#L1_6" x="-350" y="-350"/><use xlink:href="#L1_6" x="0" y="-350"/><use xlink:href="#L1_6" x="350" y="-350"/><use xlink:href="#L1_6" x="-350" y="0"/><use xlink:href="#L1_6" x="0" y="0"/><use xlink:href="#L1_6" x="350" y="0"/><use xlink:href="#L1_6" x="-350" y="350"/><use xlink:href="#L1_6" x="0" y="350"/><use xlink:href="#L1_6" x="350" y="350"/></pattern><rect x="0" y="0" width="100%" height="100%" fill="url(#pattern_L1_6)"/></g><g fi:class="KUsePattern"><pattern id="pattern_L1_7" width="350" height="350" patternUnits="userSpaceOnUse"><use xlink:href="#L1_7" x="-350" y="-350"/><use xlink:href="#L1_7" x="0" y="-350"/><use xlink:href="#L1_7" x="350" y="-350"/><use xlink:href="#L1_7" x="-350" y="0"/><use xlink:href="#L1_7" x="0" y="0"/><use xlink:href="#L1_7" x="350" y="0"/><use xlink:href="#L1_7" x="-350" y="350"/><use xlink:href="#L1_7" x="0" y="350"/><use xlink:href="#L1_7" x="350" y="350"/></pattern><rect x="0" y="0" width="100%" height="100%" fill="url(#pattern_L1_7)"/></g><g fi:class="KUsePattern"><pattern id="pattern_L1_9" width="350" height="350" patternUnits="userSpaceOnUse"><use xlink:href="#L1_9" x="-350" y="-350"/><use xlink:href="#L1_9" x="0" y="-350"/><use xlink:href="#L1_9" x="350" y="-350"/><use xlink:href="#L1_9" x="-350" y="0"/><use xlink:href="#L1_9" x="0" y="0"/><use xlink:href="#L1_9" x="350" y="0"/><use xlink:href="#L1_9" x="-350" y="350"/><use xlink:href="#L1_9" x="0" y="350"/><use xlink:href="#L1_9" x="350" y="350"/></pattern><rect x="0" y="0" width="100%" height="100%" fill="url(#pattern_L1_9)"/></g><g fi:class="KUsePattern"><pattern id="pattern_L1_10" width="350" height="350" patternUnits="userSpaceOnUse"><use xlink:href="#L1_10" x="-350" y="-350"/><use xlink:href="#L1_10" x="0" y="-350"/><use xlink:href="#L1_10" x="350" y="-350"/><use xlink:href="#L1_10" x="-350" y="0"/><use xlink:href="#L1_10" x="0" y="0"/><use xlink:href="#L1_10" x="350" y="0"/><use xlink:href="#L1_10" x="-350" y="350"/><use xlink:href="#L1_10" x="0" y="350"/><use xlink:href="#L1_10" x="350" y="350"/></pattern><rect x="0" y="0" width="100%" height="100%" fill="url(#pattern_L1_10)"/></g></svg>